<?xml version="1.0" encoding="utf-8"?>
<!-- Generator: Adobe Illustrator 25.0.1, SVG Export Plug-In . SVG Version: 6.00 Build 0)  -->
<svg version="1.1" id="Layer_1" xmlns="http://www.w3.org/2000/svg" xmlns:xlink="http://www.w3.org/1999/xlink" x="0px" y="0px"
	 viewBox="0 0 100 100" style="enable-background:new 0 0 100 100;" xml:space="preserve">
<style type="text/css">
	.st0{fill:url(#SVGID_1_);}
	.st1{fill:#57585A;}
	.st2{fill:#282828;}
	.st3{opacity:0.1;fill:#FFFFFF;enable-background:new    ;}
	.st4{fill:#FFFFFF;}
</style>
<radialGradient id="SVGID_1_" cx="50.05" cy="52" r="38.5833" gradientTransform="matrix(1 0 0 -1 0 102)" gradientUnits="userSpaceOnUse">
	<stop  offset="0" style="stop-color:#589CDB"/>
	<stop  offset="0.2293" style="stop-color:#5498D7"/>
	<stop  offset="0.4796" style="stop-color:#4A8ACB"/>
	<stop  offset="0.7397" style="stop-color:#3875B6"/>
	<stop  offset="1" style="stop-color:#20579B"/>
</radialGradient>
<path class="st0" d="M83.2,30.4C76.5,19,64,11.4,50,11.4c-21.3,0-38.6,17.3-38.6,38.6c0,10,3.8,19.1,10,25.9h-0.1
	c7,7.9,17.3,12.7,28.8,12.7c21.3,0,38.6-17.3,38.6-38.6C88.6,42.9,86.7,36.2,83.2,30.4z"/>
<path class="st1" d="M95.9,64.2L95.9,64.2c0.2-0.7,0.4-1.4,0.6-2.1c0.1-0.3,0.2-0.7,0.2-1c0.1-0.4,0.2-0.8,0.3-1.2
	c0.1-0.4,0.1-0.7,0.2-1.1c0.1-0.4,0.1-0.7,0.2-1.1c0.1-0.4,0.1-0.8,0.2-1.2c0-0.3,0.1-0.7,0.1-1c0-0.4,0.1-0.8,0.1-1.2
	c0-0.3,0-0.6,0.1-0.9c0-0.5,0.1-0.9,0.1-1.4c0-0.2,0-0.4,0-0.6c0-0.5,0-0.9,0-1.4c0-6-1.1-11.8-3.2-17.1c0-0.1,0-0.1-0.1-0.2
	c-0.2-0.6-0.4-1.1-0.7-1.7c-0.1-0.2-0.2-0.4-0.3-0.7c-0.2-0.4-0.3-0.7-0.5-1.1c-0.1-0.2-0.2-0.4-0.3-0.6l0,0
	c-0.1-0.1-0.2-0.3-0.2-0.4c-0.1-0.2-0.2-0.4-0.3-0.6c-0.2-0.4-0.4-0.7-0.6-1.1c-0.1-0.2-0.3-0.5-0.4-0.7c-0.3-0.5-0.6-1-0.9-1.4
	s-0.5-0.8-0.8-1.2c-0.2-0.2-0.3-0.5-0.5-0.7c-0.1-0.1-0.1-0.2-0.2-0.3c-0.3-0.4-0.5-0.7-0.8-1.1c-0.3-0.3-0.5-0.7-0.8-1
	s-0.5-0.6-0.8-0.9c-0.3-0.4-0.6-0.8-1-1.1c-0.2-0.2-0.4-0.5-0.6-0.7c-0.5-0.5-0.9-1-1.4-1.5c-0.1-0.1-0.2-0.2-0.3-0.3
	c-4.3-4.2-9.2-7.4-14.5-9.7c-0.1,0-0.2-0.1-0.3-0.1c-0.1,0-0.2-0.1-0.3-0.1l0,0c-0.5-0.2-1-0.4-1.4-0.6C66.5,5,66.2,4.9,66,4.8
	c-0.1,0-0.3-0.1-0.4-0.1c-0.3-0.1-0.6-0.2-0.9-0.3c-0.2-0.1-0.4-0.1-0.5-0.2c-0.1,0-0.1,0-0.2-0.1C64,4,64,4,63.9,4h-0.1
	c-0.2-0.1-0.4-0.1-0.6-0.2c-0.2-0.1-0.3-0.1-0.5-0.2c-0.5-0.1-1-0.3-1.5-0.4l0,0c-0.1,0-0.3-0.1-0.4-0.1c-0.1,0-0.2,0-0.2-0.1
	c-0.5-0.1-1.1-0.2-1.6-0.3c-0.2,0-0.4-0.1-0.6-0.1h-0.1c-0.5-0.1-1-0.2-1.5-0.2c-0.3,0-0.5-0.1-0.8-0.1c-0.1,0-0.2,0-0.3,0
	s-0.2,0-0.3,0s-0.1,0-0.2,0c-0.2,0-0.5-0.1-0.7-0.1c-0.3,0-0.6-0.1-0.9-0.1c-0.1,0-0.2,0-0.3,0s-0.3,0-0.4,0c-0.1,0-0.2,0-0.3,0
	s-0.2,0-0.3,0c-0.4,0-0.7,0-1.1,0h-0.1c-0.3,0-0.5,0-0.7,0c-0.1,0-0.2,0-0.2,0s0,0-0.1,0H50h-0.1c-0.1,0-0.2,0-0.4,0
	c-0.6,0-1.2,0-1.9,0.1c-0.1,0-0.1,0-0.2,0c-0.8,0-1.5,0.1-2.3,0.2H45c-0.8,0.1-1.5,0.2-2.3,0.3h-0.1c-0.8,0.1-1.5,0.2-2.2,0.4h-0.1
	C40,2.9,39.8,3,39.6,3l0,0c-0.1,0-0.2,0-0.3,0.1c-0.4,0.1-0.9,0.2-1.3,0.3l0,0c-0.1,0-0.2,0.1-0.3,0.1l0,0c-0.1,0-0.1,0-0.2,0h-0.1
	c-0.1,0-0.2,0.1-0.3,0.1c-0.4,0.1-0.8,0.2-1.2,0.4l0,0c-0.3,0.1-0.6,0.2-1,0.3l0,0c-0.4,0.1-0.8,0.3-1.2,0.4l0,0
	c-1.2,0.4-2.4,0.9-3.6,1.5l0,0c-0.2,0.1-0.4,0.2-0.7,0.3l0,0c-0.5,0.2-1,0.5-1.5,0.7l0,0h-0.1c0,0-0.1,0-0.1,0.1
	c-0.1,0.1-0.3,0.1-0.4,0.2l0,0c-0.4,0.2-0.8,0.5-1.2,0.7c0,0,0,0-0.1,0h-0.1l0,0c-0.2,0.1-0.4,0.3-0.7,0.4l0,0
	c-2.9,1.7-5.7,3.8-8.1,6.1l0,0c-0.1,0-0.1,0.1-0.2,0.1c0,0,0,0-0.1,0.1c0,0,0,0-0.1,0.1l-0.1,0.1c-0.4,0.4-0.8,0.8-1.2,1.2l0,0
	c-0.1,0.1-0.2,0.2-0.2,0.3c-0.2,0.2-0.4,0.4-0.6,0.6c-0.3,0.3-0.5,0.5-0.7,0.8l0,0c-0.1,0.1-0.1,0.1-0.2,0.2c-0.3,0.3-0.6,0.7-0.9,1
	c-0.1,0.2-0.3,0.3-0.4,0.5c-3.1,3.8-5.6,8-7.3,12.5c-0.2,0.6-0.4,1.2-0.7,1.8c-0.1,0.2-0.1,0.3-0.2,0.5c-0.1,0.3-0.2,0.7-0.3,1
	c-0.2,0.7-0.4,1.4-0.6,2.2c0,0,0,0,0,0.1c-0.7,2.8-1.2,5.6-1.4,8.5l0,0c-0.2,2.2-0.2,4.5,0,6.7c0,0.2,0,0.4,0,0.6
	c0,0.6,0.1,1.2,0.2,1.8c0,0.2,0.1,0.5,0.1,0.7c0.1,0.7,0.2,1.3,0.3,2c0.1,0.4,0.1,0.7,0.2,1.1c0.1,0.5,0.2,0.9,0.3,1.4
	c0.1,0.4,0.2,0.8,0.3,1.2c0.1,0.3,0.2,0.6,0.2,1c0.1,0.2,0.1,0.5,0.2,0.7c0.1,0.2,0.1,0.4,0.2,0.5c0.2,0.5,0.3,1,0.5,1.5
	c0,0.1,0.1,0.2,0.1,0.3c0.1,0.3,0.2,0.7,0.4,1c0.1,0.3,0.3,0.7,0.4,1c0.1,0.2,0.2,0.4,0.2,0.6c0.1,0.1,0.1,0.3,0.2,0.4l0,0
	c0,0,0,0,0,0.1l0,0c0.3,0.6,0.5,1.2,0.8,1.8c0.1,0.2,0.2,0.3,0.3,0.5C7,71.6,7.2,72,7.4,72.5c0.1,0.2,0.2,0.4,0.3,0.6
	c0.2,0.4,0.4,0.8,0.7,1.2c0.1,0.2,0.2,0.3,0.3,0.5c0.3,0.6,0.7,1.1,1,1.6l0,0l0,0l0,0c0.7,1.1,1.5,2.1,2.3,3.2
	c0.1,0.1,0.2,0.2,0.3,0.3c0.6,0.7,1.2,1.5,1.8,2.2c0.2,0.3,0.5,0.5,0.7,0.8c0.3,0.3,0.6,0.6,0.9,0.9c0.3,0.4,0.7,0.7,1.1,1
	c0.2,0.2,0.5,0.4,0.7,0.7c0.6,0.5,1.2,1.1,1.8,1.6c0.2,0.1,0.4,0.3,0.5,0.4c0.5,0.4,1,0.8,1.6,1.2c0.2,0.2,0.4,0.3,0.6,0.5
	c0.6,0.5,1.3,0.9,2,1.3c0.2,0.1,0.4,0.3,0.7,0.4c0.5,0.3,1,0.6,1.6,0.9c0.4,0.2,0.7,0.4,1.1,0.6c0.3,0.2,0.6,0.3,1,0.5
	c5.1,2.6,10.8,4.3,16.7,4.8c0.1,0,0.2,0,0.3,0c0.7,0.1,1.5,0.1,2.2,0.2c0.1,0,0.2,0,0.3,0c0.7,0,1.4,0.1,2,0.1c1.1,0,2.1,0,3.2-0.1
	c0.1,0,0.2,0,0.2,0c0.6,0,1.3-0.1,1.9-0.2c0.4,0,0.7-0.1,1.1-0.1c0.4,0,0.7-0.1,1.1-0.2c0.7-0.1,1.4-0.2,2.1-0.4h0.1
	c6.3-1.3,12.4-3.8,17.9-7.7c3.4-2.4,6.5-5.2,9.1-8.3c4-4.6,7.1-10.1,9.1-16.2C95.7,64.7,95.8,64.5,95.9,64.2z M84.4,65.7
	c-1.7,3.6-3.9,7-6.7,10.1c-0.2,0.2-0.4,0.4-0.6,0.6c-0.3,0.3-0.6,0.6-0.8,0.8c-0.7,0.6-1.4,1.3-2.1,1.9c-0.1,0.1-0.2,0.1-0.2,0.2
	c-0.3,0.3-0.6,0.5-0.9,0.7c-0.1,0.1-0.2,0.1-0.3,0.2c-0.1,0.1-0.3,0.2-0.5,0.3c-0.2,0.1-0.3,0.2-0.5,0.4c-0.3,0.2-0.7,0.5-1,0.7
	c-0.1,0.1-0.2,0.1-0.3,0.2c-4.5,2.9-9.6,4.9-15,5.7c-0.1,0-0.2,0-0.3,0c-0.5,0.1-1,0.1-1.4,0.2c-0.2,0-0.5,0-0.7,0.1
	c-0.3,0-0.7,0.1-1,0.1s-0.6,0-0.9,0c-0.3,0-0.6,0-0.9,0c-0.3,0-0.7,0-1,0s-0.6,0-0.8,0c-0.4,0-0.8,0-1.3-0.1c-0.2,0-0.3,0-0.5,0
	c-0.5,0-1-0.1-1.5-0.2c-0.1,0-0.1,0-0.2,0c-0.5-0.1-1.1-0.2-1.6-0.2c-0.1,0-0.2,0-0.3-0.1c-0.5-0.1-0.9-0.2-1.4-0.3
	c-0.2,0-0.3-0.1-0.5-0.1c-0.4-0.1-0.8-0.2-1.2-0.3c-0.2-0.1-0.5-0.1-0.7-0.2c-0.3-0.1-0.6-0.2-1-0.3c-0.4-0.1-0.7-0.2-1.1-0.4
	c-0.3-0.1-0.5-0.2-0.8-0.3c-0.4-0.1-0.7-0.3-1.1-0.4c-0.2-0.1-0.5-0.2-0.7-0.3c-0.4-0.2-0.7-0.3-1.1-0.5c-1.2-0.6-2.4-1.2-3.6-1.9
	c-0.1-0.1-0.2-0.1-0.4-0.2c-0.4-0.3-0.8-0.5-1.2-0.8c-0.1-0.1-0.2-0.1-0.3-0.2c-0.4-0.3-0.8-0.6-1.2-0.9c-0.1-0.1-0.2-0.1-0.3-0.2
	c-0.4-0.3-0.8-0.7-1.2-1c-0.1-0.1-0.1-0.1-0.2-0.2c-0.4-0.4-0.8-0.7-1.3-1.1l-0.1-0.1c-0.4-0.4-0.9-0.9-1.3-1.3l0,0
	c-1.3-1.4-2.5-2.9-3.7-4.5c-6.4-9.2-8.2-20.1-5.9-30.3c0.8-3.5,2.1-6.8,3.8-9.9l0,0c0.3-0.5,0.5-0.9,0.8-1.4
	c0.1-0.2,0.2-0.4,0.4-0.6c0.1-0.1,0.2-0.3,0.3-0.4c0.2-0.3,0.4-0.5,0.6-0.8c0.1-0.2,0.3-0.4,0.4-0.5c0.2-0.3,0.4-0.5,0.6-0.8
	c0.1-0.2,0.3-0.4,0.4-0.5c0.2-0.2,0.4-0.5,0.6-0.7s0.3-0.4,0.5-0.5c0.4-0.4,0.7-0.8,1.1-1.2c0.2-0.2,0.4-0.4,0.5-0.6
	c0.2-0.2,0.4-0.4,0.6-0.6s0.4-0.4,0.6-0.5c0.2-0.2,0.4-0.4,0.6-0.6s0.4-0.4,0.6-0.5c0.2-0.2,0.4-0.4,0.6-0.5
	c0.2-0.2,0.5-0.4,0.7-0.6c0.2-0.1,0.4-0.3,0.6-0.4c0.4-0.3,0.8-0.6,1.3-0.9c0.2-0.1,0.4-0.3,0.6-0.4c0.3-0.2,0.6-0.4,0.8-0.5
	c0.2-0.1,0.4-0.3,0.6-0.4c0.3-0.2,0.6-0.3,0.8-0.5c0.2-0.1,0.4-0.2,0.6-0.3c0.3-0.2,0.6-0.3,1-0.5c0.2-0.1,0.3-0.2,0.5-0.3
	c0.5-0.2,1-0.5,1.5-0.7c0.2-0.1,0.3-0.1,0.5-0.2c0.4-0.2,0.7-0.3,1.1-0.4c0.2-0.1,0.4-0.1,0.6-0.2c0.3-0.1,0.7-0.2,1-0.4
	c0.2-0.1,0.4-0.1,0.6-0.2c0.4-0.1,0.8-0.2,1.1-0.3c0.2,0,0.3-0.1,0.5-0.1c0.6-0.1,1.1-0.3,1.7-0.4c0.1,0,0.2,0,0.3-0.1
	c0.5-0.1,1-0.2,1.4-0.3c0.2,0,0.4-0.1,0.6-0.1c0.4-0.1,0.8-0.1,1.2-0.2c0.2,0,0.4,0,0.6-0.1c0.4,0,0.8-0.1,1.2-0.1
	c0.2,0,0.4,0,0.6,0c0.6,0,1.2,0,1.8,0c0.9,0,1.7,0,2.6,0.1c0.4,0,0.7,0.1,1,0.1c0.5,0,1,0.1,1.5,0.2c0.4,0.1,0.9,0.1,1.3,0.2
	c0.4,0.1,0.8,0.1,1.2,0.2c0.5,0.1,1,0.2,1.5,0.4c0.3,0.1,0.6,0.1,0.9,0.2c0.6,0.2,1.1,0.3,1.6,0.5c0.2,0.1,0.5,0.1,0.7,0.2
	c0.6,0.2,1.2,0.5,1.8,0.7c0.2,0.1,0.3,0.1,0.5,0.2c0.7,0.3,1.3,0.6,1.9,0.9c0.1,0,0.2,0.1,0.3,0.1c0.7,0.3,1.3,0.7,2,1.1
	c0.1,0,0.1,0.1,0.2,0.1c0.7,0.4,1.4,0.8,2,1.3l0,0c4.7,3.1,8.6,7.3,11.5,12.1c1.9,3.2,3.3,6.7,4.2,10.3c1.1,4.5,1.4,9.1,0.8,13.7
	C86.9,58.4,85.9,62.1,84.4,65.7C84.4,65.6,84.4,65.6,84.4,65.7C84.4,65.6,84.4,65.6,84.4,65.7L84.4,65.7z"/>
<path class="st2" d="M86.8,41.2c1.5,6.4,1.5,13.2-0.6,20c-6.2,20-27.4,31.2-47.4,25c-2.3-0.7-4.4-1.6-6.4-2.6
	c-1.7,0.1-3.4,0.2-5.1,0.2c-4.5,0-8.8-0.5-12.9-1.5c5.6,6.2,12.8,11,21.3,13.6c25.4,7.9,52.4-6.4,60.3-31.7c3.4-11,2.6-25-1.9-33.1
	l0,0c-2.3-5.5-5.7-10.6-10-15c0.6,3.2,0.9,6.6,0.9,10c0,2.8-0.2,5.5-0.6,8.2C85.3,36.6,86.1,38.8,86.8,41.2"/>
<path class="st3" d="M84.3,34.2c-0.5-1.2-1.1-2.3-1.8-3.5c-6.6-11.2-18.8-18.6-32.6-18.6C29,12.1,12,29.1,12,50
	c0,9.8,3.7,18.7,9.8,25.4h-0.1c3,3.3,6.5,6.1,10.5,8.2C59.1,81.3,80.6,60.6,84.3,34.2z"/>
<path class="st4" d="M64.9,37.2c-0.1-0.9-0.9-1.6-1.8-1.6l-4,0l0.1-9.3c0-1.1-0.9-2-2-2c0,0,0,0,0,0c-1.1,0-2,0.9-2,2c0,0,0,0,0,0
	l-0.1,9.3l-8.3,0l0.1-9.3c0-1.1-0.9-2-2-2s-2,0.9-2,2c0,0,0,0,0,0L43,35.6l-4,0c-0.9,0-1.7,0.6-1.8,1.5c-0.1,0.9,0.6,1.8,1.5,1.9
	c0.1,0,0.1,0,0.2,0c0.6,0,1.2,0.5,1.2,1.2v0l0,6.4c0,4.7,2.9,8.9,7.4,10.4c-0.2,1.5,0.6,3,2,3.7l0,6.1c-0.3,3.9-3.6,6.8-7.4,6.8
	c-4.1,0-7.5-3.3-7.5-7.4V63h0c0,0,0,0,0,0c0-0.8-0.7-1.5-1.5-1.5s-1.5,0.7-1.5,1.5c0,0,0,0,0,0h0v3c0,5.8,4.6,10.5,10.5,10.5
	c5.7,0,10.3-4.5,10.4-10.1c0,0,0,0,0,0l0.1-5.7c1.4-0.7,2.2-2.1,2-3.6c4.5-1.5,7.5-5.6,7.5-10.3l0-6.4c0-0.6,0.5-1.2,1.2-1.2h0
	c1,0,1.7-0.7,1.8-1.7C64.9,37.4,64.9,37.3,64.9,37.2z"/>
</svg>
