<?xml version="1.0" encoding="utf-8"?>
<!-- Generator: Adobe Illustrator 25.0.1, SVG Export Plug-In . SVG Version: 6.00 Build 0)  -->
<svg version="1.1" id="Layer_1" xmlns="http://www.w3.org/2000/svg" xmlns:xlink="http://www.w3.org/1999/xlink" x="0px" y="0px"
	 viewBox="0 0 100 100" style="enable-background:new 0 0 100 100;" xml:space="preserve">
<style type="text/css">
	.st0{fill:url(#SVGID_1_);}
	.st1{fill:#57585A;}
	.st2{fill:#282828;}
	.st3{opacity:0.1;fill:#FFFFFF;enable-background:new    ;}
	.st4{fill:#FFFFFF;}
</style>
<radialGradient id="SVGID_1_" cx="50.0518" cy="-458.1" r="38.4759" gradientTransform="matrix(1 0 0 -1 0 -408)" gradientUnits="userSpaceOnUse">
	<stop  offset="0" style="stop-color:#589CDB"/>
	<stop  offset="0.2293" style="stop-color:#5498D7"/>
	<stop  offset="0.4796" style="stop-color:#4A8ACB"/>
	<stop  offset="0.7397" style="stop-color:#3875B6"/>
	<stop  offset="1" style="stop-color:#20579B"/>
</radialGradient>
<path class="st0" d="M83.2,30.5c-6.7-11.4-19.1-18.9-33.1-18.9c-21.2,0-38.5,17.3-38.5,38.5c0,9.9,3.7,19,9.9,25.8h-0.1
	c7,7.8,17.3,12.7,28.6,12.7c21.2,0,38.5-17.3,38.5-38.5C88.6,43,86.6,36.3,83.2,30.5z"/>
<path class="st1" d="M88.3,21c-0.3-0.4-0.7-0.9-1-1.3c0,0,0-0.1-0.1-0.1l0,0c-4.3-5.3-9.8-9.8-16.3-12.9l0,0c-0.7-0.3-1.4-0.7-2.2-1
	c-0.2-0.1-0.5-0.2-0.7-0.3c-0.5-0.2-1-0.4-1.6-0.6c-0.5-0.2-0.9-0.3-1.4-0.5c-0.3-0.1-0.5-0.2-0.8-0.3c-0.1,0-0.2,0-0.3,0
	c-0.4-0.1-0.8-0.2-1.3-0.4c-0.4-0.1-0.8-0.2-1.2-0.3S60.6,3.1,60.2,3c-0.5-0.1-1-0.2-1.5-0.3c-0.3-0.1-0.6-0.1-0.9-0.2
	c-0.7-0.1-1.3-0.2-2-0.3c-0.1,0-0.3,0-0.4-0.1C49.5,1.5,43.6,2,38,3.4c-0.1,0-0.2,0.1-0.3,0.1c-0.6,0.2-1.2,0.3-1.8,0.5
	c-0.3,0.1-0.7,0.2-1,0.3c-0.4,0.1-0.8,0.3-1.2,0.4c-0.4,0.2-0.9,0.3-1.3,0.5c-0.3,0.1-0.5,0.2-0.8,0.3c-0.5,0.2-1,0.4-1.4,0.6
	c-0.2,0.1-0.4,0.2-0.7,0.3C29,6.7,28.5,7,28,7.2c-0.2,0.1-0.4,0.2-0.6,0.3C26.9,7.8,26.5,8,26,8.3c-0.2,0.1-0.4,0.3-0.7,0.4
	c-0.4,0.2-0.8,0.5-1.2,0.8c-0.3,0.2-0.5,0.3-0.8,0.5c-0.4,0.2-0.7,0.5-1,0.7s-0.6,0.4-0.9,0.6c-0.3,0.2-0.6,0.4-0.9,0.7
	s-0.7,0.5-1,0.8c-0.2,0.2-0.5,0.4-0.7,0.6c-0.4,0.3-0.7,0.6-1.1,1c-0.2,0.2-0.4,0.3-0.6,0.5c-0.4,0.4-0.8,0.7-1.1,1.1
	c-0.2,0.2-0.3,0.3-0.5,0.5c-0.4,0.4-0.8,0.8-1.1,1.2c-0.2,0.2-0.3,0.4-0.5,0.5c-0.4,0.4-0.7,0.8-1,1.2c-0.2,0.2-0.4,0.4-0.5,0.7
	c-0.3,0.4-0.6,0.7-0.9,1.1c-0.2,0.3-0.5,0.7-0.7,1s-0.4,0.6-0.6,0.8c-0.4,0.5-0.7,1.1-1,1.6c-0.1,0.1-0.1,0.2-0.2,0.3
	C6.3,29.1,4.3,34,3.1,39.1c0,0.1-0.1,0.3-0.1,0.4c-0.1,0.4-0.2,0.9-0.3,1.3c-0.1,0.6-0.2,1.2-0.3,1.8v0.1
	c-1.1,7.1-0.6,14.2,1.3,20.8c0.2,0.6,0.4,1.2,0.6,1.9c0.1,0.2,0.1,0.3,0.2,0.5c0.1,0.3,0.2,0.7,0.4,1c0.3,0.7,0.5,1.4,0.8,2.1
	c0,0,0,0,0,0.1c1.1,2.7,2.5,5.2,4.1,7.6c2.2,3.3,4.7,6.3,7.6,8.9c0.3,0.3,0.6,0.5,0.8,0.7c0.4,0.4,0.9,0.8,1.3,1.2
	c0.4,0.3,0.7,0.6,1.1,0.8c0.4,0.3,0.8,0.6,1.2,0.9c0.3,0.2,0.7,0.4,1,0.7c0.5,0.3,1,0.7,1.5,1c0.2,0.1,0.5,0.3,0.7,0.4
	c0.6,0.4,1.3,0.8,2,1.1c0.1,0.1,0.2,0.1,0.3,0.2c5.4,2.9,11.4,4.7,17.7,5.3c0.1,0,0.2,0,0.3,0c0.7,0.1,1.5,0.1,2.2,0.2
	c0.1,0,0.2,0,0.3,0c0.7,0,1.4,0.1,2,0.1c8.9,0,17.2-2.4,24.3-6.6c0.1-0.1,0.2-0.1,0.3-0.2c0.4-0.3,0.9-0.5,1.3-0.8
	c0.3-0.2,0.6-0.3,0.8-0.5c0.2-0.2,0.5-0.3,0.7-0.5c0.5-0.3,0.9-0.6,1.4-1l0.1-0.1c7.7-5.7,13.7-13.7,16.9-23.5
	c0.1-0.3,0.2-0.5,0.3-0.7l0,0c0.2-0.7,0.4-1.4,0.6-2.1c0.1-0.3,0.2-0.7,0.2-1c0.1-0.4,0.2-0.8,0.3-1.2c0.1-0.4,0.1-0.7,0.2-1.1
	c0.1-0.4,0.1-0.7,0.2-1.1c0.1-0.4,0.1-0.8,0.2-1.2c0-0.3,0.1-0.7,0.1-1c0-0.4,0.1-0.8,0.1-1.2c0-0.3,0-0.6,0.1-0.9
	c0-0.5,0.1-0.9,0.1-1.4c0-0.2,0-0.4,0-0.6c0-0.5,0-0.9,0-1.4C98.1,39.1,94.4,29.1,88.3,21z M90.2,43c-1,3.1-1,6.2-1.3,9.5
	c-0.1,1.7-0.4,3.4-0.5,5c-0.1,0.7,0,1.6-0.1,2.4c0.1,0.2,0.1,0.5,0,0.7c-0.3,2.5-1.5,4.5-2.6,6.7c-1.2,2.1-2.1,4.3-3.6,6.2
	c-2.6,3.4-5.9,6.1-8.9,9.1c-1.4,1.5-2.9,2.8-4.8,3.7c-2,0.9-4,1.7-6.1,2.4c-4.4,1.4-8.7,1.3-13.3,1.2c-4.6-0.1-9.3,0.4-13.7-1.1
	c-0.6-0.2-1.1-0.6-1.3-1.1l0,0c-2.4,0-3-2.9-1.6-4.2C24.8,79.6,19,73.4,15.6,65.9C13.2,60.7,12,55,12.1,49.2v-0.1
	c0-0.5,0-1.1,0.1-1.6c0-0.1,0-0.2,0-0.3c0-0.5,0.1-1,0.1-1.4c0-0.1,0-0.3,0.1-0.4c0.1-0.4,0.1-0.9,0.2-1.3c0-0.1,0.1-0.3,0.1-0.4
	c0.1-0.5,0.2-0.9,0.3-1.4v-0.1c0.2-0.8,0.4-1.5,0.6-2.3c0.1-0.4,0.2-0.8,0.3-1.1c0-0.1,0-0.1,0.1-0.2c4.6-15.4,19-26.5,35.9-26.5
	c13.9,0,26,7.5,32.6,18.5c1,1.7,1.8,3.4,2.6,5.2c0.1,0,0.2-0.1,0.3-0.1c0.3-0.1,0.6-0.1,1,0c0.3,0,0.6,0.1,0.9,0.3s0.5,0.4,0.7,0.6
	c0.2,0.2,0.4,0.5,0.4,0.8c0.2,0.8,0.3,1.7,0.5,2.5c0,0.1,0,0.2,0,0.3C89.9,40.5,90.7,41.5,90.2,43z"/>
<path class="st2" d="M94.5,32c-2.3-5.9-5.9-11.3-10.4-15.8c0.6,3.2,0.9,6.6,0.9,10c0,2.8-0.2,5.5-0.6,8.2c1,2.2,1.7,4,2.5,6.8
	c1.5,6.4,1.5,13.2-0.6,20c-6.2,20-27.4,31.2-47.4,25c-2.3-0.7-4.4-1.6-6.4-2.6c-1.7,0.1-3.4,0.2-5.1,0.2c-4.5,0-8.8-0.5-12.9-1.5
	c5.6,6.2,12.8,11,21.3,13.6c25.4,7.9,52.4-6.4,60.3-31.7C99.4,53.2,98.6,41.9,94.5,32z"/>
<path class="st3" d="M84.4,34.1c-0.5-1.2-1.1-2.3-1.8-3.5C76,19.4,63.8,12,50,12c-20.9,0-37.9,17-37.9,37.9c0,9.8,3.7,18.7,9.8,25.4
	h-0.1c3,3.3,6.5,6.1,10.5,8.2C59.1,81.2,80.7,60.5,84.4,34.1z"/>
<g>
	<path class="st4" d="M68.2,40.4H50.6H50H32.4c-0.6,0-1.2,0.5-1.2,1.1v21.7v0.1v2v0.1c0,0.6,0.5,1.2,1.2,1.2h14.1
		c0,0.4-0.1,1.9-0.9,2.7c-0.6,0.6-1.4,1.1-1.1,1.4c0.1,0.2,0.4,0.3,1.3,0.3c1.8,0,3.8,0,4.5,0c0.2,0,0.3,0,0.3,0c0.7,0,2.7,0,4.5,0
		c0.9,0,1.3-0.2,1.3-0.4h0v-0.1h0c0-0.3-0.7-0.8-1.1-1.2c-0.7-0.8-0.8-2.3-0.9-2.7h13.9c0.6,0,1.1-0.5,1.1-1.2v-0.1v-2v-0.1V41.5
		C69.4,40.9,68.9,40.4,68.2,40.4z M50.3,65.5c-0.4,0-0.7-0.3-0.7-0.7s0.3-0.7,0.7-0.7c0.4,0,0.7,0.3,0.7,0.7
		C51,65.2,50.7,65.5,50.3,65.5z M67.8,61.7H32.8V42h34.9L67.8,61.7L67.8,61.7z"/>
	<g>
		<path class="st4" d="M61,30.5H39.6c-0.9,0-1.6,0.7-1.6,1.6v2.1h24.6v-2.1C62.6,31.2,61.9,30.5,61,30.5z M41,32.9h-1.1v-1.1H41
			V32.9z M43.3,32.9h-1.1v-1.1h1.1V32.9z M45.7,32.9h-1.1v-1.1h1.1V32.9z M60.7,32.9H47.3v-1.1h13.4V32.9z"/>
		<path class="st4" d="M38,53.5c0,0.9,0.7,1.6,1.6,1.6H61c0.9,0,1.6-0.7,1.6-1.6V35.3H38V53.5z M45.1,50.6l-0.8-0.8l3.5-3.5
			l-3.5-3.5l0.8-0.8l4.2,4.2L45.1,50.6z M51.3,36.8h2v1.1h-2V36.8z M50.3,49.6h5.5v1.1h-5.5V49.6z M47.5,36.8h2v1.1h-2V36.8z
			 M43.7,36.8h2v1.1h-2V36.8z M39.9,36.8h2v1.1h-2V36.8z"/>
	</g>
</g>
</svg>
