<?xml version="1.0" encoding="utf-8"?>
<!-- Generator: Adobe Illustrator 25.0.1, SVG Export Plug-In . SVG Version: 6.00 Build 0)  -->
<svg version="1.1" id="Layer_1" xmlns="http://www.w3.org/2000/svg" xmlns:xlink="http://www.w3.org/1999/xlink" x="0px" y="0px"
	 viewBox="0 0 100 100" style="enable-background:new 0 0 100 100;" xml:space="preserve">
<style type="text/css">
	.st0{fill:url(#SVGID_1_);}
	.st1{fill:#57585A;}
	.st2{fill:#282828;}
	.st3{opacity:0.1;fill:#FFFFFF;enable-background:new    ;}
	.st4{fill:#FFFFFF;}
</style>
<radialGradient id="SVGID_1_" cx="50.0518" cy="-458.1" r="38.4759" gradientTransform="matrix(1 0 0 -1 0 -408)" gradientUnits="userSpaceOnUse">
	<stop  offset="0" style="stop-color:#589CDB"/>
	<stop  offset="0.2293" style="stop-color:#5498D7"/>
	<stop  offset="0.4796" style="stop-color:#4A8ACB"/>
	<stop  offset="0.7397" style="stop-color:#3875B6"/>
	<stop  offset="1" style="stop-color:#20579B"/>
</radialGradient>
<path class="st0" d="M83.2,30.5c-6.7-11.4-19.1-18.9-33.1-18.9c-21.2,0-38.5,17.3-38.5,38.5c0,9.9,3.7,19,9.9,25.8h-0.1
	c7,7.8,17.3,12.7,28.6,12.7c21.2,0,38.5-17.3,38.5-38.5C88.6,43,86.6,36.3,83.2,30.5z"/>
<path class="st1" d="M88.3,21c-0.3-0.4-0.7-0.9-1-1.3c0,0,0-0.1-0.1-0.1l0,0c-4.3-5.3-9.8-9.8-16.3-12.9l0,0c-0.7-0.3-1.4-0.7-2.2-1
	c-0.2-0.1-0.5-0.2-0.7-0.3c-0.5-0.2-1-0.4-1.6-0.6c-0.5-0.2-0.9-0.3-1.4-0.5c-0.3-0.1-0.5-0.2-0.8-0.3c-0.1,0-0.2,0-0.3,0
	c-0.4-0.1-0.8-0.2-1.3-0.4c-0.4-0.1-0.8-0.2-1.2-0.3S60.6,3.1,60.2,3c-0.5-0.1-1-0.2-1.5-0.3c-0.3-0.1-0.6-0.1-0.9-0.2
	c-0.7-0.1-1.3-0.2-2-0.3c-0.1,0-0.3,0-0.4-0.1C49.5,1.5,43.6,2,38,3.4c-0.1,0-0.2,0.1-0.3,0.1c-0.6,0.2-1.2,0.3-1.8,0.5
	c-0.3,0.1-0.7,0.2-1,0.3c-0.4,0.1-0.8,0.3-1.2,0.4c-0.4,0.2-0.9,0.3-1.3,0.5c-0.3,0.1-0.5,0.2-0.8,0.3c-0.5,0.2-1,0.4-1.4,0.6
	c-0.2,0.1-0.4,0.2-0.7,0.3C29,6.7,28.5,7,28,7.2c-0.2,0.1-0.4,0.2-0.6,0.3C26.9,7.8,26.5,8,26,8.3c-0.2,0.1-0.4,0.3-0.7,0.4
	c-0.4,0.2-0.8,0.5-1.2,0.8c-0.3,0.2-0.5,0.3-0.8,0.5c-0.4,0.2-0.7,0.5-1,0.7s-0.6,0.4-0.9,0.6c-0.3,0.2-0.6,0.4-0.9,0.7
	s-0.7,0.5-1,0.8c-0.2,0.2-0.5,0.4-0.7,0.6c-0.4,0.3-0.7,0.6-1.1,1c-0.2,0.2-0.4,0.3-0.6,0.5c-0.4,0.4-0.8,0.7-1.1,1.1
	c-0.2,0.2-0.3,0.3-0.5,0.5c-0.4,0.4-0.8,0.8-1.1,1.2c-0.2,0.2-0.3,0.4-0.5,0.5c-0.4,0.4-0.7,0.8-1,1.2c-0.2,0.2-0.4,0.4-0.5,0.7
	c-0.3,0.4-0.6,0.7-0.9,1.1c-0.2,0.3-0.5,0.7-0.7,1s-0.4,0.6-0.6,0.8c-0.4,0.5-0.7,1.1-1,1.6c-0.1,0.1-0.1,0.2-0.2,0.3
	C6.3,29.1,4.3,34,3.1,39.1c0,0.1-0.1,0.3-0.1,0.4c-0.1,0.4-0.2,0.9-0.3,1.3c-0.1,0.6-0.2,1.2-0.3,1.8v0.1
	c-1.1,7.1-0.6,14.2,1.3,20.8c0.2,0.6,0.4,1.2,0.6,1.9c0.1,0.2,0.1,0.3,0.2,0.5c0.1,0.3,0.2,0.7,0.4,1c0.3,0.7,0.5,1.4,0.8,2.1
	c0,0,0,0,0,0.1c1.1,2.7,2.5,5.2,4.1,7.6c2.2,3.3,4.7,6.3,7.6,8.9c0.3,0.3,0.6,0.5,0.8,0.7c0.4,0.4,0.9,0.8,1.3,1.2
	c0.4,0.3,0.7,0.6,1.1,0.8c0.4,0.3,0.8,0.6,1.2,0.9c0.3,0.2,0.7,0.4,1,0.7c0.5,0.3,1,0.7,1.5,1c0.2,0.1,0.5,0.3,0.7,0.4
	c0.6,0.4,1.3,0.8,2,1.1c0.1,0.1,0.2,0.1,0.3,0.2c5.4,2.9,11.4,4.7,17.7,5.3c0.1,0,0.2,0,0.3,0c0.7,0.1,1.5,0.1,2.2,0.2
	c0.1,0,0.2,0,0.3,0c0.7,0,1.4,0.1,2,0.1c8.9,0,17.2-2.4,24.3-6.6c0.1-0.1,0.2-0.1,0.3-0.2c0.4-0.3,0.9-0.5,1.3-0.8
	c0.3-0.2,0.6-0.3,0.8-0.5c0.2-0.2,0.5-0.3,0.7-0.5c0.5-0.3,0.9-0.6,1.4-1l0.1-0.1c7.7-5.7,13.7-13.7,16.9-23.5
	c0.1-0.3,0.2-0.5,0.3-0.7l0,0c0.2-0.7,0.4-1.4,0.6-2.1c0.1-0.3,0.2-0.7,0.2-1c0.1-0.4,0.2-0.8,0.3-1.2c0.1-0.4,0.1-0.7,0.2-1.1
	c0.1-0.4,0.1-0.7,0.2-1.1c0.1-0.4,0.1-0.8,0.2-1.2c0-0.3,0.1-0.7,0.1-1c0-0.4,0.1-0.8,0.1-1.2c0-0.3,0-0.6,0.1-0.9
	c0-0.5,0.1-0.9,0.1-1.4c0-0.2,0-0.4,0-0.6c0-0.5,0-0.9,0-1.4C98.1,39.1,94.4,29.1,88.3,21z M90.2,43c-1,3.1-1,6.2-1.3,9.5
	c-0.1,1.7-0.4,3.4-0.5,5c-0.1,0.7,0,1.6-0.1,2.4c0.1,0.2,0.1,0.5,0,0.7c-0.3,2.5-1.5,4.5-2.6,6.7c-1.2,2.1-2.1,4.3-3.6,6.2
	c-2.6,3.4-5.9,6.1-8.9,9.1c-1.4,1.5-2.9,2.8-4.8,3.7c-2,0.9-4,1.7-6.1,2.4c-4.4,1.4-8.7,1.3-13.3,1.2c-4.6-0.1-9.3,0.4-13.7-1.1
	c-0.6-0.2-1.1-0.6-1.3-1.1l0,0c-2.4,0-3-2.9-1.6-4.2C24.8,79.6,19,73.4,15.6,65.9C13.2,60.7,12,55,12.1,49.2v-0.1
	c0-0.5,0-1.1,0.1-1.6c0-0.1,0-0.2,0-0.3c0-0.5,0.1-1,0.1-1.4c0-0.1,0-0.3,0.1-0.4c0.1-0.4,0.1-0.9,0.2-1.3c0-0.1,0.1-0.3,0.1-0.4
	c0.1-0.5,0.2-0.9,0.3-1.4v-0.1c0.2-0.8,0.4-1.5,0.6-2.3c0.1-0.4,0.2-0.8,0.3-1.1c0-0.1,0-0.1,0.1-0.2c4.6-15.4,19-26.5,35.9-26.5
	c13.9,0,26,7.5,32.6,18.5c1,1.7,1.8,3.4,2.6,5.2c0.1,0,0.2-0.1,0.3-0.1c0.3-0.1,0.6-0.1,1,0c0.3,0,0.6,0.1,0.9,0.3s0.5,0.4,0.7,0.6
	c0.2,0.2,0.4,0.5,0.4,0.8c0.2,0.8,0.3,1.7,0.5,2.5c0,0.1,0,0.2,0,0.3C89.9,40.5,90.7,41.5,90.2,43z"/>
<path class="st2" d="M94.5,32c-2.3-5.9-5.9-11.3-10.4-15.8c0.6,3.2,0.9,6.6,0.9,10c0,2.8-0.2,5.5-0.6,8.2c1,2.2,1.7,4,2.5,6.8
	c1.5,6.4,1.5,13.2-0.6,20c-6.2,20-27.4,31.2-47.4,25c-2.3-0.7-4.4-1.6-6.4-2.6c-1.7,0.1-3.4,0.2-5.1,0.2c-4.5,0-8.8-0.5-12.9-1.5
	c5.6,6.2,12.8,11,21.3,13.6c25.4,7.9,52.4-6.4,60.3-31.7C99.4,53.2,98.6,41.9,94.5,32z"/>
<path class="st3" d="M84.4,34.1c-0.5-1.2-1.1-2.3-1.8-3.5C76,19.4,63.8,12,50,12c-20.9,0-37.9,17-37.9,37.9c0,9.8,3.7,18.7,9.8,25.4
	h-0.1c3,3.3,6.5,6.1,10.5,8.2C59.1,81.2,80.7,60.5,84.4,34.1z"/>
<g>
	<path class="st4" d="M39.2,36.5c2-1,2.7-3.5,1.7-5.4c-1-2-3.5-2.7-5.4-1.7c-2,1-2.7,3.5-1.7,5.4C34.8,36.8,37.2,37.5,39.2,36.5z"/>
	<path class="st4" d="M32.7,66.5l2,0.3l0.5,0.1l0.5,0.1l1.6-4.8l2.5-7.6h-0.5h-0.5l-1.8,5.6c-0.8-1.9-2.7-3.2-4.9-3.2
		c-3,0-5.4,2.5-5.3,5.5l0.1,3.9c0.1,2.7,2.3,4.8,5,4.8h0.8l0,0c0,0,0,0,0.1,0h1.9h2h2.2c0.3,0,0.5-0.2,0.5-0.5c0-0.2,0-0.3-0.1-0.5
		c-0.2-0.9-0.9-1.6-1.9-1.8l-0.5-0.1L35.4,68l-0.5-0.1l-0.5-0.1l-1.9-0.3c-0.1,0-0.2,0-0.2-0.1c-0.6-0.2-1-0.8-1-1.4v-2.9
		c0-0.3,0.2-0.5,0.5-0.5s0.5,0.2,0.5,0.5V66C32.3,66.3,32.5,66.5,32.7,66.5z"/>
	<path class="st4" d="M68.4,47.5c-0.1,0-0.1,0-0.2,0c-1.5,0-2.9,0.8-3.6,2.2c-0.7,1.3-0.6,2.7,0.1,3.9c0.4,0.6,0.9,1.2,1.6,1.6
		c0.6,0.3,1.2,0.5,1.9,0.5c1.5,0,2.9-0.8,3.6-2.2c1-2,0.3-4.4-1.7-5.4C69.6,47.7,69,47.5,68.4,47.5z"/>
	<path class="st4" d="M68.2,56.9c-2.3,0-4.2,1.4-5,3.5l-1.9-5.9h-0.5h-0.5l2.7,8.2l1.4,4.4l0.5-0.1l0.5-0.1l2.4-0.4
		c0.2,0,0.4-0.2,0.4-0.5v-2.9c0-0.3,0.2-0.5,0.5-0.5c0.3,0,0.5,0.2,0.5,0.5V66c0,0.7-0.4,1.2-1,1.4c-0.1,0-0.2,0-0.2,0.1l-2.3,0.4
		L65.2,68l-0.5,0.1l-1.4,0.2l-0.2,0c-1,0.2-1.7,0.9-1.9,1.8c0,0.2-0.1,0.3-0.1,0.5c0,0.3,0.2,0.5,0.5,0.5h1.9h1.8h2.4c0,0,0,0,0.1,0
		l0,0h0.5c2.7,0,4.9-2.1,5-4.8l0.1-3.9C73.6,59.4,71.2,56.9,68.2,56.9z"/>
	<path class="st4" d="M60.2,70.1H40.3c0,0.2,0,0.3,0,0.5c0,0.2,0,0.3-0.1,0.5h20c-0.1-0.2-0.1-0.3-0.1-0.5
		C60.2,70.5,60.2,70.3,60.2,70.1z"/>
	<path class="st4" d="M45,53.5c0.3,0,0.5-0.2,0.5-0.5c0-0.9-0.6-1.6-1.5-1.7l-2.2-0.4L41,50.8l-0.5-0.1L40,50.6l-0.4-0.1
		c0,0,0,0-0.1,0c-0.2-0.1-0.4-0.3-0.3-0.6c0-0.3,0.3-0.5,0.6-0.4l0.6,0.1l0.5,0.1l0.5,0.1l0.7-2.1l0.7-2.3h11.6h1.3h1.6l0.9,2.9
		l0.5,1.5l0.5-0.1l0.5-0.1l0.7-0.1c0.3,0,0.5,0.1,0.6,0.4c0,0.3-0.1,0.5-0.4,0.6c0,0,0,0-0.1,0l-0.6,0.1l-0.5,0.1l-0.5,0.1l-0.6,0.1
		l-2.2,0.4c-0.8,0.1-1.4,0.9-1.4,1.7c0,0.3,0.2,0.5,0.5,0.5h3.4H60h0.5H61h0.6h0.1h1.9c-0.6-1.3-0.6-2.9,0.1-4.3
		c0.9-1.7,2.6-2.7,4.5-2.7c0.1,0,0.1,0,0.2,0l0.1-2.7c0.1-3-2.3-5.5-5.3-5.5c-3.1,0-5.5,2.6-5.3,5.6l0.1,0.8
		c-0.2-0.2-0.4-0.3-0.7-0.3h-1.6h-1.4H42.8c-0.2,0-0.4,0.1-0.5,0.2l0-0.7c0.2-3.1-2.2-5.6-5.3-5.6c-3,0-5.4,2.5-5.3,5.5l0.1,2.7
		c0.2,0,0.3,0,0.5,0c1.9,0,3.6,1,4.5,2.7c0.7,1.4,0.7,3,0.1,4.3h1.4h0.2h0.6h0.5h0.5h1.5H45z"/>
	<path class="st4" d="M59.2,33.4c0,0.1,0,0.1,0,0.2c0,0.2,0.1,0.4,0.1,0.6c0,0.1,0.1,0.2,0.1,0.2c0.1,0.1,0.1,0.3,0.2,0.4
		c0,0,0,0,0,0c0,0.1,0.1,0.1,0.1,0.2c0.4,0.6,0.9,1.1,1.5,1.5c0,0,0,0,0,0c0.1,0,0.1,0,0.2,0.1c0.2,0.1,0.4,0.2,0.5,0.2
		c0.1,0,0.2,0,0.3,0.1c0.1,0,0.3,0.1,0.4,0.1c0.1,0,0.3,0,0.4,0c0.1,0,0.3,0,0.4,0c0.1,0,0.3,0,0.4-0.1c0.1,0,0.2,0,0.3-0.1
		c0.2-0.1,0.4-0.1,0.5-0.2c0.1,0,0.1,0,0.2-0.1c0,0,0,0,0,0c0.6-0.3,1.1-0.8,1.5-1.5c0-0.1,0.1-0.1,0.1-0.2c0,0,0,0,0,0
		c0.1-0.1,0.1-0.2,0.1-0.3c0.1-0.1,0.1-0.3,0.2-0.4c0-0.1,0.1-0.3,0.1-0.4c0-0.1,0.1-0.3,0.1-0.4c0,0,0-0.1,0-0.1l0,0
		c0-0.2,0-0.4,0-0.6c0.3,0,0.6-0.2,0.8-0.5c0.6,0.3,1.7,0.8,0.6,2.9c-0.5,1.1-0.9,2.5-0.1,3.5c0.9,1.1,3.5,1,4.2-0.6
		c-1.3,0.8-2,0.1-2.1-0.5c-0.3-0.9,0.7-1.8,1.1-2.3c0.4-0.5,2-2.2,0.4-4.6c-1.6-2.4-3.8-1.4-4.5-0.6c-0.2,0.2-0.3,0.5-0.5,0.7
		c-0.2,0-0.4,0.1-0.5,0.2c-0.3-0.5-0.8-0.9-1.2-1.2l0,0c0,0-0.1,0-0.1-0.1c0,0,0,0,0,0c0,0,0,0,0,0c-0.1-0.1-0.2-0.1-0.3-0.1
		c-0.1,0-0.2-0.1-0.4-0.1C64.2,29,64.1,29,64,29c-0.1,0-0.2-0.1-0.4-0.1c-0.1,0-0.3,0-0.4,0c-0.1,0-0.3,0-0.4,0
		c-0.1,0-0.2,0-0.4,0.1c-0.1,0-0.3,0-0.4,0.1c-0.1,0-0.2,0.1-0.4,0.1c-0.1,0-0.2,0.1-0.3,0.1c0,0,0,0,0,0c-0.1,0.1-0.2,0.1-0.3,0.2
		c-0.6,0.4-1.1,0.9-1.4,1.5c0,0,0,0,0,0c0,0,0,0,0,0.1c-0.1,0.2-0.2,0.4-0.3,0.7c0,0.1,0,0.1,0,0.2c0,0.2-0.1,0.4-0.1,0.6
		c0,0.1,0,0.1,0,0.2C59.2,33,59.2,33.2,59.2,33.4z"/>
	<path class="st4" d="M27,53.6c-1.1-2.1-0.1-2.6,0.6-2.9c0.2,0.3,0.5,0.5,0.8,0.5c0,0.2,0,0.4,0,0.6l0,0c0,0,0,0.1,0,0.1
		c0,0.1,0,0.3,0.1,0.4c0,0.1,0,0.3,0.1,0.4c0,0.1,0.1,0.3,0.2,0.4c0,0.1,0.1,0.2,0.1,0.3c0,0,0,0,0,0c0,0.1,0.1,0.1,0.1,0.2
		c0.4,0.6,0.9,1.1,1.5,1.5c0,0,0,0,0,0c0.1,0,0.1,0,0.2,0.1c0.2,0.1,0.4,0.2,0.5,0.2c0.1,0,0.2,0,0.3,0.1c0.1,0,0.3,0.1,0.4,0.1
		c0.1,0,0.3,0,0.4,0c0.1,0,0.3,0,0.4,0c0.1,0,0.3,0,0.4-0.1c0.1,0,0.2,0,0.3-0.1c0.2-0.1,0.4-0.1,0.5-0.2c0.1,0,0.1,0,0.2-0.1
		c0,0,0,0,0,0c0.6-0.3,1.1-0.8,1.5-1.5c0-0.1,0.1-0.1,0.1-0.2c0,0,0,0,0,0c0.1-0.1,0.1-0.3,0.2-0.4c0-0.1,0.1-0.2,0.1-0.2
		c0.1-0.2,0.1-0.4,0.1-0.6c0-0.1,0-0.1,0-0.2c0-0.2,0-0.4,0-0.6c0-0.1,0-0.1,0-0.2c0-0.2-0.1-0.4-0.1-0.6c0-0.1,0-0.1,0-0.2
		c-0.1-0.2-0.2-0.5-0.3-0.7c0,0,0,0,0-0.1c0,0,0,0,0,0c-0.3-0.6-0.8-1.1-1.4-1.5c-0.1-0.1-0.2-0.1-0.3-0.2c0,0,0,0,0,0
		c-0.1-0.1-0.2-0.1-0.3-0.1c-0.1,0-0.2-0.1-0.4-0.1c-0.1,0-0.3-0.1-0.4-0.1c-0.1,0-0.2-0.1-0.4-0.1c-0.1,0-0.3,0-0.4,0
		c-0.1,0-0.3,0-0.4,0c-0.1,0-0.2,0-0.4,0.1c-0.1,0-0.3,0-0.4,0.1c-0.1,0-0.2,0.1-0.4,0.1c-0.1,0-0.2,0.1-0.3,0.1c0,0,0,0,0,0
		c0,0,0,0,0,0c0,0-0.1,0-0.1,0.1l0,0c-0.5,0.3-0.9,0.7-1.2,1.2c-0.1-0.1-0.3-0.2-0.5-0.2c-0.1-0.3-0.2-0.5-0.5-0.7
		c-0.7-0.8-3-1.7-4.5,0.6c-1.6,2.4-0.1,4.1,0.4,4.6c0.4,0.5,1.4,1.4,1.1,2.3c-0.2,0.6-0.9,1.4-2.1,0.5c0.7,1.6,3.3,1.8,4.2,0.6
		C27.8,56.1,27.4,54.6,27,53.6z"/>
</g>
</svg>
