<?xml version="1.0" encoding="utf-8"?>
<!-- Generator: Adobe Illustrator 25.0.1, SVG Export Plug-In . SVG Version: 6.00 Build 0)  -->
<svg version="1.1" id="Layer_1" xmlns="http://www.w3.org/2000/svg" xmlns:xlink="http://www.w3.org/1999/xlink" x="0px" y="0px"
	 viewBox="0 0 100 100" style="enable-background:new 0 0 100 100;" xml:space="preserve">
<style type="text/css">
	.st0{fill:url(#SVGID_1_);}
	.st1{fill:#57585A;}
	.st2{fill:#282828;}
	.st3{opacity:0.1;fill:#FFFFFF;}
	.st4{fill:#FFFFFF;}
</style>
<g>
	<radialGradient id="SVGID_1_" cx="49.9853" cy="50.057" r="38.6441" gradientUnits="userSpaceOnUse">
		<stop  offset="0" style="stop-color:#42AEA8"/>
		<stop  offset="0.2348" style="stop-color:#3EACA7"/>
		<stop  offset="0.4912" style="stop-color:#30A7A6"/>
		<stop  offset="0.7566" style="stop-color:#1B9DA3"/>
		<stop  offset="1" style="stop-color:#00929F"/>
	</radialGradient>
	<path class="st0" d="M83.2,30.4c-6.7-11.4-19.2-19-33.2-19c-21.3,0-38.6,17.3-38.6,38.6c0,10,3.8,19.1,10,25.9c0,0-0.1,0-0.1,0
		c7,7.9,17.3,12.7,28.8,12.7c21.3,0,38.6-17.3,38.6-38.6C88.6,42.9,86.7,36.2,83.2,30.4z"/>
	<path class="st1" d="M95.9,64.2C95.9,64.2,95.9,64.2,95.9,64.2c0.2-0.7,0.4-1.4,0.6-2.1c0.1-0.3,0.2-0.7,0.2-1
		c0.1-0.4,0.2-0.8,0.3-1.2c0.1-0.4,0.1-0.7,0.2-1.1c0.1-0.4,0.1-0.7,0.2-1.1c0.1-0.4,0.1-0.8,0.2-1.2c0-0.3,0.1-0.7,0.1-1
		c0-0.4,0.1-0.8,0.1-1.2c0-0.3,0-0.6,0.1-0.9c0-0.5,0.1-0.9,0.1-1.4c0-0.2,0-0.4,0-0.6c0-0.5,0-0.9,0-1.4c0-6-1.1-11.8-3.2-17.1
		c0-0.1,0-0.1-0.1-0.2c-0.2-0.6-0.4-1.1-0.7-1.7c-0.1-0.2-0.2-0.4-0.3-0.7c-0.2-0.4-0.3-0.7-0.5-1.1c-0.1-0.2-0.2-0.4-0.3-0.6
		c0,0,0,0,0,0c-0.1-0.1-0.2-0.3-0.2-0.4c-0.1-0.2-0.2-0.4-0.3-0.6c-0.2-0.4-0.4-0.7-0.6-1.1c-0.1-0.2-0.3-0.5-0.4-0.7
		c-0.3-0.5-0.6-1-0.9-1.4c-0.3-0.4-0.5-0.8-0.8-1.2c-0.2-0.2-0.3-0.5-0.5-0.7c-0.1-0.1-0.1-0.2-0.2-0.3c-0.3-0.4-0.5-0.7-0.8-1.1
		c-0.3-0.3-0.5-0.7-0.8-1c-0.3-0.3-0.5-0.6-0.8-0.9c-0.3-0.4-0.6-0.8-1-1.1c-0.2-0.2-0.4-0.5-0.6-0.7c-0.5-0.5-0.9-1-1.4-1.5
		c-0.1-0.1-0.2-0.2-0.3-0.3c-4.3-4.2-9.2-7.4-14.5-9.7c-0.1,0-0.2-0.1-0.3-0.1c-0.1,0-0.2-0.1-0.3-0.1c0,0,0,0,0,0
		c-0.5-0.2-1-0.4-1.4-0.6c-0.3-0.1-0.6-0.2-0.8-0.3c-0.1,0-0.3-0.1-0.4-0.1c-0.3-0.1-0.6-0.2-0.9-0.3c-0.2-0.1-0.4-0.1-0.5-0.2
		c-0.1,0-0.1,0-0.2-0.1C64,4,64,4,63.9,4c0,0-0.1,0-0.1,0c-0.2-0.1-0.4-0.1-0.6-0.2c-0.2-0.1-0.3-0.1-0.5-0.2
		c-0.5-0.1-1-0.3-1.5-0.4c0,0,0,0,0,0c-0.1,0-0.3-0.1-0.4-0.1c-0.1,0-0.2,0-0.2-0.1c-0.5-0.1-1.1-0.2-1.6-0.3
		c-0.2,0-0.4-0.1-0.6-0.1c0,0-0.1,0-0.1,0c-0.5-0.1-1-0.2-1.5-0.2c-0.3,0-0.5-0.1-0.8-0.1c-0.1,0-0.2,0-0.3,0c-0.1,0-0.2,0-0.3,0
		c-0.1,0-0.1,0-0.2,0c-0.2,0-0.5-0.1-0.7-0.1c-0.3,0-0.6-0.1-0.9-0.1c-0.1,0-0.2,0-0.3,0c-0.1,0-0.3,0-0.4,0c-0.1,0-0.2,0-0.3,0
		c-0.1,0-0.2,0-0.3,0c-0.4,0-0.7,0-1.1,0c0,0-0.1,0-0.1,0c-0.3,0-0.5,0-0.7,0c-0.1,0-0.2,0-0.2,0c0,0,0,0-0.1,0c0,0-0.1,0-0.1,0
		c0,0-0.1,0-0.1,0c-0.1,0-0.2,0-0.4,0c-0.6,0-1.2,0-1.9,0.1c-0.1,0-0.1,0-0.2,0c-0.8,0-1.5,0.1-2.3,0.2c0,0-0.1,0-0.1,0
		c-0.8,0.1-1.5,0.2-2.3,0.3c0,0-0.1,0-0.1,0c-0.8,0.1-1.5,0.2-2.2,0.4c0,0-0.1,0-0.1,0C40,2.9,39.8,3,39.6,3c0,0,0,0,0,0
		c-0.1,0-0.2,0-0.3,0.1c-0.4,0.1-0.9,0.2-1.3,0.3c0,0,0,0,0,0c-0.1,0-0.2,0.1-0.3,0.1c0,0,0,0,0,0c-0.1,0-0.1,0-0.2,0
		c0,0-0.1,0-0.1,0c-0.1,0-0.2,0.1-0.3,0.1c-0.4,0.1-0.8,0.2-1.2,0.4c0,0,0,0,0,0c-0.3,0.1-0.6,0.2-1,0.3c0,0,0,0,0,0
		c-0.4,0.1-0.8,0.3-1.2,0.4c0,0,0,0,0,0c-1.2,0.4-2.4,0.9-3.6,1.5c0,0,0,0,0,0c-0.2,0.1-0.4,0.2-0.7,0.3c0,0,0,0,0,0
		c-0.5,0.2-1,0.5-1.5,0.7c0,0,0,0,0,0c0,0-0.1,0-0.1,0c0,0-0.1,0-0.1,0.1c-0.1,0.1-0.3,0.1-0.4,0.2c0,0,0,0,0,0
		c-0.4,0.2-0.8,0.5-1.2,0.7c0,0,0,0-0.1,0c0,0-0.1,0-0.1,0c0,0,0,0,0,0c-0.2,0.1-0.4,0.3-0.7,0.4c0,0,0,0,0,0
		c-2.9,1.7-5.7,3.8-8.1,6.1c0,0,0,0,0,0c-0.1,0-0.1,0.1-0.2,0.1c0,0,0,0-0.1,0.1c0,0,0,0-0.1,0.1c0,0-0.1,0.1-0.1,0.1
		c-0.4,0.4-0.8,0.8-1.2,1.2c0,0,0,0,0,0c-0.1,0.1-0.2,0.2-0.2,0.3c-0.2,0.2-0.4,0.4-0.6,0.6c-0.3,0.3-0.5,0.5-0.7,0.8c0,0,0,0,0,0
		c-0.1,0.1-0.1,0.1-0.2,0.2c-0.3,0.3-0.6,0.7-0.9,1c-0.1,0.2-0.3,0.3-0.4,0.5c-3.1,3.8-5.6,8-7.3,12.5c-0.2,0.6-0.4,1.2-0.7,1.8
		c-0.1,0.2-0.1,0.3-0.2,0.5c-0.1,0.3-0.2,0.7-0.3,1c-0.2,0.7-0.4,1.4-0.6,2.2c0,0,0,0,0,0.1c-0.7,2.8-1.2,5.6-1.4,8.5c0,0,0,0,0,0
		c-0.2,2.2-0.2,4.5,0,6.7c0,0.2,0,0.4,0,0.6c0,0.6,0.1,1.2,0.2,1.8c0,0.2,0.1,0.5,0.1,0.7c0.1,0.7,0.2,1.3,0.3,2
		c0.1,0.4,0.1,0.7,0.2,1.1c0.1,0.5,0.2,0.9,0.3,1.4c0.1,0.4,0.2,0.8,0.3,1.2c0.1,0.3,0.2,0.6,0.2,1c0.1,0.2,0.1,0.5,0.2,0.7
		c0.1,0.2,0.1,0.4,0.2,0.5c0.2,0.5,0.3,1,0.5,1.5c0,0.1,0.1,0.2,0.1,0.3c0.1,0.3,0.2,0.7,0.4,1c0.1,0.3,0.3,0.7,0.4,1
		c0.1,0.2,0.2,0.4,0.2,0.6c0.1,0.1,0.1,0.3,0.2,0.4c0,0,0,0,0,0c0,0,0,0,0,0.1c0,0,0,0,0,0c0.3,0.6,0.5,1.2,0.8,1.8
		c0.1,0.2,0.2,0.3,0.3,0.5c0.2,0.4,0.4,0.8,0.6,1.3c0.1,0.2,0.2,0.4,0.3,0.6c0.2,0.4,0.4,0.8,0.7,1.2c0.1,0.2,0.2,0.3,0.3,0.5
		c0.3,0.6,0.7,1.1,1,1.6c0,0,0,0,0,0h0l0,0c0.7,1.1,1.5,2.1,2.3,3.2c0.1,0.1,0.2,0.2,0.3,0.3c0.6,0.7,1.2,1.5,1.8,2.2
		c0.2,0.3,0.5,0.5,0.7,0.8c0.3,0.3,0.6,0.6,0.9,0.9c0.3,0.4,0.7,0.7,1.1,1c0.2,0.2,0.5,0.4,0.7,0.7c0.6,0.5,1.2,1.1,1.8,1.6
		c0.2,0.1,0.4,0.3,0.5,0.4c0.5,0.4,1,0.8,1.6,1.2c0.2,0.2,0.4,0.3,0.6,0.5c0.6,0.5,1.3,0.9,2,1.3c0.2,0.1,0.4,0.3,0.7,0.4
		c0.5,0.3,1,0.6,1.6,0.9c0.4,0.2,0.7,0.4,1.1,0.6c0.3,0.2,0.6,0.3,1,0.5c5.1,2.6,10.8,4.3,16.7,4.8c0.1,0,0.2,0,0.3,0
		c0.7,0.1,1.5,0.1,2.2,0.2c0.1,0,0.2,0,0.3,0c0.7,0,1.4,0.1,2,0.1c1.1,0,2.1,0,3.2-0.1c0.1,0,0.2,0,0.2,0c0.6,0,1.3-0.1,1.9-0.2
		c0.4,0,0.7-0.1,1.1-0.1c0.4,0,0.7-0.1,1.1-0.2c0.7-0.1,1.4-0.2,2.1-0.4c0,0,0.1,0,0.1,0c6.3-1.3,12.4-3.8,17.9-7.7
		c3.4-2.4,6.5-5.2,9.1-8.3c4-4.6,7.1-10.1,9.1-16.2C95.7,64.7,95.8,64.5,95.9,64.2z M84.4,65.7c-1.7,3.6-3.9,7-6.7,10.1
		c-0.2,0.2-0.4,0.4-0.6,0.6c-0.3,0.3-0.6,0.6-0.8,0.8c-0.7,0.6-1.4,1.3-2.1,1.9c-0.1,0.1-0.2,0.1-0.2,0.2c-0.3,0.3-0.6,0.5-0.9,0.7
		c-0.1,0.1-0.2,0.1-0.3,0.2c-0.1,0.1-0.3,0.2-0.5,0.3c-0.2,0.1-0.3,0.2-0.5,0.4c-0.3,0.2-0.7,0.5-1,0.7c-0.1,0.1-0.2,0.1-0.3,0.2
		c-4.5,2.9-9.6,4.9-15,5.7c-0.1,0-0.2,0-0.3,0c-0.5,0.1-1,0.1-1.4,0.2c-0.2,0-0.5,0-0.7,0.1c-0.3,0-0.7,0.1-1,0.1
		c-0.3,0-0.6,0-0.9,0c-0.3,0-0.6,0-0.9,0c-0.3,0-0.7,0-1,0c-0.3,0-0.6,0-0.8,0c-0.4,0-0.8,0-1.3-0.1c-0.2,0-0.3,0-0.5,0
		c-0.5,0-1-0.1-1.5-0.2c-0.1,0-0.1,0-0.2,0c-0.5-0.1-1.1-0.2-1.6-0.2c-0.1,0-0.2,0-0.3-0.1c-0.5-0.1-0.9-0.2-1.4-0.3
		c-0.2,0-0.3-0.1-0.5-0.1c-0.4-0.1-0.8-0.2-1.2-0.3c-0.2-0.1-0.5-0.1-0.7-0.2c-0.3-0.1-0.6-0.2-1-0.3c-0.4-0.1-0.7-0.2-1.1-0.4
		c-0.3-0.1-0.5-0.2-0.8-0.3c-0.4-0.1-0.7-0.3-1.1-0.4c-0.2-0.1-0.5-0.2-0.7-0.3c-0.4-0.2-0.7-0.3-1.1-0.5c-1.2-0.6-2.4-1.2-3.6-1.9
		c-0.1-0.1-0.2-0.1-0.4-0.2c-0.4-0.3-0.8-0.5-1.2-0.8c-0.1-0.1-0.2-0.1-0.3-0.2c-0.4-0.3-0.8-0.6-1.2-0.9c-0.1-0.1-0.2-0.1-0.3-0.2
		c-0.4-0.3-0.8-0.7-1.2-1c-0.1-0.1-0.1-0.1-0.2-0.2c-0.4-0.4-0.8-0.7-1.3-1.1c0,0-0.1-0.1-0.1-0.1c-0.4-0.4-0.9-0.9-1.3-1.3
		c0,0,0,0,0,0c-1.3-1.4-2.5-2.9-3.7-4.5c-6.4-9.2-8.2-20.1-5.9-30.3c0.8-3.5,2.1-6.8,3.8-9.9c0,0,0,0,0,0c0.3-0.5,0.5-0.9,0.8-1.4
		c0.1-0.2,0.2-0.4,0.4-0.6c0.1-0.1,0.2-0.3,0.3-0.4c0.2-0.3,0.4-0.5,0.6-0.8c0.1-0.2,0.3-0.4,0.4-0.5c0.2-0.3,0.4-0.5,0.6-0.8
		c0.1-0.2,0.3-0.4,0.4-0.5c0.2-0.2,0.4-0.5,0.6-0.7c0.2-0.2,0.3-0.4,0.5-0.5c0.4-0.4,0.7-0.8,1.1-1.2c0.2-0.2,0.4-0.4,0.5-0.6
		c0.2-0.2,0.4-0.4,0.6-0.6c0.2-0.2,0.4-0.4,0.6-0.5c0.2-0.2,0.4-0.4,0.6-0.6c0.2-0.2,0.4-0.4,0.6-0.5c0.2-0.2,0.4-0.4,0.6-0.5
		c0.2-0.2,0.5-0.4,0.7-0.6c0.2-0.1,0.4-0.3,0.6-0.4c0.4-0.3,0.8-0.6,1.3-0.9c0.2-0.1,0.4-0.3,0.6-0.4c0.3-0.2,0.6-0.4,0.8-0.5
		c0.2-0.1,0.4-0.3,0.6-0.4c0.3-0.2,0.6-0.3,0.8-0.5c0.2-0.1,0.4-0.2,0.6-0.3c0.3-0.2,0.6-0.3,1-0.5c0.2-0.1,0.3-0.2,0.5-0.3
		c0.5-0.2,1-0.5,1.5-0.7c0.2-0.1,0.3-0.1,0.5-0.2c0.4-0.2,0.7-0.3,1.1-0.4c0.2-0.1,0.4-0.1,0.6-0.2c0.3-0.1,0.7-0.2,1-0.4
		c0.2-0.1,0.4-0.1,0.6-0.2c0.4-0.1,0.8-0.2,1.1-0.3c0.2,0,0.3-0.1,0.5-0.1c0.6-0.1,1.1-0.3,1.7-0.4c0.1,0,0.2,0,0.3-0.1
		c0.5-0.1,1-0.2,1.4-0.3c0.2,0,0.4-0.1,0.6-0.1c0.4-0.1,0.8-0.1,1.2-0.2c0.2,0,0.4,0,0.6-0.1c0.4,0,0.8-0.1,1.2-0.1
		c0.2,0,0.4,0,0.6,0c0.6,0,1.2,0,1.8,0c0.9,0,1.7,0,2.6,0.1c0.4,0,0.7,0.1,1,0.1c0.5,0,1,0.1,1.5,0.2c0.4,0.1,0.9,0.1,1.3,0.2
		c0.4,0.1,0.8,0.1,1.2,0.2c0.5,0.1,1,0.2,1.5,0.4c0.3,0.1,0.6,0.1,0.9,0.2c0.6,0.2,1.1,0.3,1.6,0.5c0.2,0.1,0.5,0.1,0.7,0.2
		c0.6,0.2,1.2,0.5,1.8,0.7c0.2,0.1,0.3,0.1,0.5,0.2c0.7,0.3,1.3,0.6,1.9,0.9c0.1,0,0.2,0.1,0.3,0.1c0.7,0.3,1.3,0.7,2,1.1
		c0.1,0,0.1,0.1,0.2,0.1c0.7,0.4,1.4,0.8,2,1.3c0,0,0,0,0,0c4.7,3.1,8.6,7.3,11.5,12.1c1.9,3.2,3.3,6.7,4.2,10.3
		c1.1,4.5,1.4,9.1,0.8,13.7C86.9,58.4,85.9,62.1,84.4,65.7c0-0.1,0-0.1,0.1-0.1C84.4,65.6,84.4,65.6,84.4,65.7
		C84.4,65.7,84.4,65.7,84.4,65.7z"/>
	<path class="st2" d="M86.8,41.2c1.5,6.4,1.5,13.2-0.6,20c-6.2,20-27.4,31.2-47.4,25c-2.3-0.7-4.4-1.6-6.4-2.6
		c-1.7,0.1-3.4,0.2-5.1,0.2c-4.5,0-8.8-0.5-12.9-1.5c5.6,6.2,12.8,11,21.3,13.6c25.4,7.9,52.4-6.4,60.3-31.7c3.4-11,2.6-25-1.9-33.1
		c0,0,0,0,0,0c-2.3-5.5-5.7-10.6-10-15c0.6,3.2,0.9,6.6,0.9,10c0,2.8-0.2,5.5-0.6,8.2C85.3,36.6,86.1,38.8,86.8,41.2"/>
	<path class="st3" d="M84.3,34.2c-0.5-1.2-1.1-2.3-1.8-3.5c-6.6-11.2-18.8-18.6-32.6-18.6C29,12.1,12,29.1,12,50
		c0,9.8,3.7,18.7,9.8,25.4c0,0-0.1,0-0.1,0c3,3.3,6.5,6.1,10.5,8.2C59.1,81.3,80.6,60.6,84.3,34.2z"/>
	<path class="st4" d="M55.2,39.8c-9,0-16.3,6.4-16.3,14.3s7.3,14.3,16.3,14.3c3.2,0,6.3-0.8,8.8-2.3c2.3,1.4,4.8,1.3,6.2,1.1
		c0.4,0,0.5-0.6,0.2-0.8c-1.4-0.9-2.1-2.2-2.6-3.3c2.3-2.5,3.6-5.6,3.6-9C71.5,46.2,64.2,39.8,55.2,39.8z M64.7,58.8
		c0,0.7-0.6,1.3-1.3,1.3h-8.5c-0.7,0-1.3-0.6-1.3-1.3l0,0c0-0.7,0.6-1.3,1.3-1.3h8.5C64.2,57.6,64.7,58.1,64.7,58.8L64.7,58.8z
		 M63.5,55.3H46.9c-0.7,0-1.3-0.6-1.3-1.3c0-0.7,0.6-1.3,1.3-1.3h16.6c0.7,0,1.3,0.6,1.3,1.3C64.7,54.8,64.2,55.3,63.5,55.3z
		 M63.5,50.6H46.9c-0.7,0-1.3-0.6-1.3-1.3c0-0.7,0.6-1.3,1.3-1.3h16.6c0.7,0,1.3,0.6,1.3,1.3C64.7,50,64.2,50.6,63.5,50.6z M33,50.2
		c-1.9-2-3-4.6-3-7.4c0-6.5,6-11.8,13.4-11.8c5,0,9.5,2.5,11.7,6l0,0c-10,0-18.2,6.9-19,15.7l0,0c-1.9,1.1-3.9,1.1-5.1,0.9
		c-0.4,0-0.4-0.5-0.1-0.7C32,52.1,32.7,51.1,33,50.2z"/>
</g>
</svg>
